<svg version="1.0" xmlns="http://www.w3.org/2000/svg" width="1290.667" height="864" viewBox="0 0 968 648"><path fill="#ff0000" d="M618.5 18.9c-13.1 1-17.5 2-17.5 3.8 0 .7.8 3 1.9 5.1 3.7 7.4 11.3 33 13.2 44.7 3.8 23.6 4.1 26.9 4.1 47.5s-.3 24.2-4.1 46c-2.9 16.8-11.5 43-14.2 43-.7 0-.9-.9-.5-2.3.3-1.2 1.8-9.6 3.1-18.7 2.8-18.4 4.5-54.8 2.8-61l-1-3.5-.7 4.5c-.8 4.8-4.1 18.6-5.6 23.5-.6 1.6-1.6 5-2.4 7.5-7.6 24.3-22.6 49.7-39.8 67.6-9.5 9.8-23.4 20.5-30.4 23.3-3 1.2-3.5 1-9.2-2.8-3.3-2.3-10.3-6.2-15.6-8.7-9.4-4.4-9.8-4.5-11.7-2.8-1.1 1-3.8 5.5-6 10.1s-4.4 8.1-4.9 7.8c-1.2-.8-.1-10.9 2.1-18.5 3-10.5 9.5-20.3 20.4-31 18.7-18.2 22.1-22.2 29.3-33.6 9.4-15 12.7-34.9 7.5-46.2l-1.7-3.7-.3 4c-.8 11.9-4.8 22.2-12.6 32.3-6.4 8.3-12.8 13.7-29 24.9-20.4 13.9-32.8 26.4-41.7 41.6-3.3 5.7-3.8 6.2-8 6.9-6.4 1-18.1 3.9-19.9 4.8-.9.5-3.6 1.6-6.1 2.5-2.5.9-7.2 3.4-10.6 5.6-9.2 5.9-9.7 5.7-14-6.6-2.7-7.6-2.8-8.8-2.7-24.5.1-9.1.4-25.5.8-36.4.7-21.7.2-26.4-4.3-39.6-3.2-9.4-7.8-17.2-13.2-22.8-8.4-8.6-19.1-13.9-12.3-6.1 3.9 4.3 8.6 13.6 11 21.4 1.4 4.7 1.8 9 1.7 20-.1 13.4-1.3 21.3-5.2 34.5-9.4 31.5-10.8 57.3-4.1 77.7 2.9 8.8 3.7 9.2 9.9 4.9 8.7-6 9-5 1.8 4.8-9.4 12.9-15.4 27-18.4 43.4-.9 5.1-2 9.2-2.5 9.2-1 0-1.8-4.6-2.2-12l-.2-5.5-9-3.1c-15.2-5.1-29-14.2-42.4-27.8-12.6-12.7-21.9-26.1-31-44.7-4.4-9-5.1-9.9-5.1-7 0 4 6 28.3 9.1 36.8 1.1 3.2 3.4 9.3 5 13.5 3 8.1 3.4 9.8 2.1 9.8-1.6 0-14.9-24-18.1-33-.7-1.9-1.7-4.4-2.1-5.5-7.9-18.9-12.3-44.2-12.3-70.5 0-16.2.5-22.1 2.9-34.3.5-2.6.4-2.7-3.9-2.7-10 0-30 3.9-47.2 9.1C145.3 164 98.8 199.8 67.1 251c-5.5 8.9-17.5 32.9-20.9 41.7-4.2 10.9-10.4 29.9-13.9 42.5-.7 2.8 1.1 2.2 14.1-4.1 37.3-18.1 73.1-29.5 113.1-36.3 10.9-1.8 49.6-1.8 59 .1 8.1 1.6 10.9 2.7 8.5 3.4-.8.3-10.9 1-22.5 1.6-20.3 1-32.3 2.3-50.8 5.6-15 2.6-41.8 10.3-42.4 12.2-.2.6 3.8 1.2 9.9 1.6 5.7.3 13.9 1.6 18.3 2.7 8.9 2.4 26.4 10.3 32.2 14.7 11.6 8.6 23.4 19.9 31.5 30 1.8 2.3 3.9 4.2 4.6 4.2.7.1 3.2-1.2 5.5-2.7 5.8-3.8 8.3-4.9 15.2-6.6 9.3-2.2 17.4-2.7 25-1.7 18.7 2.7 30.8 12.5 36.5 29.7l2.1 6.3 5.9-7.2c9.4-11.7 21.6-19.8 35.3-23.4 6.6-1.8 20.8-2.3 27-1 3.5.7 4 1.4 8.3 10 4.4 8.7 9.9 17.4 14.3 22.4 1.5 1.8 3 2.3 6.5 2.3 4 0 5.9.8 12.8 5.5 4.5 3 8.4 5.2 8.6 5 .3-.3-.3-3-1.3-6.1-1.9-6-1.7-6.4 3.5-8.4 1.9-.7 6-2.5 9-3.9 4.1-1.9 7.7-2.7 14.5-3.1l9-.5-3.7-2.3c-2.1-1.3-3.8-2.8-3.8-3.4 0-.5 2.2-3.5 5-6.7 2.7-3.1 6.2-8.6 7.9-12.1 2.5-5.6 3.5-9.3 5.7-20.8.7-3.7 2.2-2.5 3.9 3 3.6 11.9 2.9 27-1.8 38.3-2.6 6.3-9.6 17.3-13 20.4l-2.6 2.4-6.9-2.2c-10.5-3.3-11.1-3-5.7 2.7 5.1 5.5 4.7 7-3.5 11.7-3.8 2.2-7 4.5-7 5.1 0 1.2 12.4 5.5 22 7.6 8.7 1.9 30.1 1.6 39.5-.6 32.6-7.5 57.7-27.5 71.6-57 5.9-12.7 8-22 8.6-37.9.7-18.4-1.6-31.6-8.2-47-2.3-5.6-1.3-6.9 1.7-2.2 7.3 11.6 12.3 25.8 14.1 40.5l1.3 9.5 2.9-.2c20.6-1.3 29.9.2 42.8 6.7l7.7 3.9v-5.2c.1-13.3 6.2-27.9 15.3-36.3 7.4-6.8 12.5-9.8 23.4-13.6 7.7-2.6 10.6-3.1 22.9-3.5 12.7-.5 14.8-.3 21.8 1.7 4.2 1.3 7.9 2.7 8.2 3.2.3.4 1.5.8 2.7.8 1.9 0 3.2-1.8 7.2-9.8 20.4-39.9 50-66.1 87-76.8 9.9-2.8 9.9-2.9 6-3.6-9.4-1.7-49-3.8-73.5-3.8-14.6 0-27.1-.4-27.8-.9-.9-.6.9-1.4 5.5-2.4 19.7-4.6 40.8-6.1 74.7-5.4 39.9.8 75.5 5 112 13.3 10.8 2.4 14.6 2.9 14.6 1.9 0-1.9-12.5-24.6-20.8-38-23-36.8-47.8-64.4-81.7-90.8-10.8-8.4-32.8-21.8-47.5-28.9-31.4-15.2-59.2-23.3-98.5-28.7-9.8-1.4-45-2.1-57-1.2zM440 272.4c0 4.5-2.9 11.8-6.8 16.9l-3.9 5.2-.2 18.8c-.1 11.4-.7 19.9-1.3 21.3-.7 1.4-5.2 5.4-10.2 8.8-5 3.5-10.2 7.6-11.5 9-3.2 3.4-5.1 3.3-5.3-.2-.1-1.5-.2-3.4-.4-4.2-.1-.8-.3-3.1-.4-5l-.1-3.5-1.5 4.5c-.7 2.5-1.9 8.2-2.6 12.7-1.7 11.6-2.5 11.2-4.8-2.1-2.6-14.9.2-32.1 7-44 4.5-8 11.3-15.1 19.9-20.8 9.4-6.2 13.3-9.9 17.3-16 3.1-4.9 4.8-5.4 4.8-1.4z"/><path fill="#ff0000" d="M563.4 367.8c-.8 2.1-2 4.7-2.6 5.9-.6 1.3-.8 2.6-.4 3 .4.4 6.4 1 13.4 1.4 35.5 2 65.7 11.9 80.7 26.4 9.2 8.9 12 15.2 12 27 0 7.9-.4 9.8-2.9 15-3.7 7.5-13.1 17-22.3 22.3-16.3 9.4-53.2 21.4-77.8 25.3-2.7.4-6.3 1.1-7.9 1.5-2.1.5-2.7.4-2.2-.5.4-.6 1.7-1.1 3-1.1 1.2 0 2.6-.4 3.2-.8.5-.5 3.4-1.4 6.4-2.2 28.1-6.8 58.1-21.1 70.1-33.3 9.1-9.3 11.9-22.5 7.1-33.1-2.6-5.7-14.6-18-21.5-22.1-14.4-8.4-31.7-13-53.3-14.1-12.5-.6-13.3-.5-15.3 1.5-1.1 1.1-2.1 2.5-2.1 3s3.5 1.2 7.8 1.6c28.1 2.4 49.8 10.5 63.1 23.7 15.4 15.3 11.4 27.5-12.6 38.4-4.3 1.9-8.7 3.9-9.8 4.4-8.3 3.8-31.7 9.9-51.5 13.4-8 1.4-16.7 3-19.5 3.6-2.7.5-10.2 1.9-16.5 3.1-10.5 1.9-33.7 7.3-48.3 11.3-8.1 2.2-24.1 8.3-31.2 11.9-26.4 13.2-37.3 30.9-32.5 52.6 6.2 28.2 34.3 40.5 78.7 34.6 26.6-3.5 49.6-9.2 86.6-21.6 8.1-2.7 15.2-4.7 15.7-4.4.6.3 1 3 1 6 0 12.2 3.6 21.7 11.4 30.3 5.6 6.1 14.9 11.1 24.4 13.1 6.6 1.4 22.6 1.4 31.2 0 28.5-4.5 62.5-27.6 73.1-49.7 2.6-5.4 3.1-7.5 3.1-14.3 0-7.1-.3-8.5-2.9-12.7-5.4-8.8-14.8-14-30.9-17.2-8.8-1.7-42.1-.8-55.6 1.5-5.9 1-11.1 1.5-11.5 1.1-2.2-2.2 19.1-17.8 35.2-25.8 12.3-6.2 30.3-12.4 31.7-11 .7.7.1 3.7-2.2 10.1-1.8 5-3 9.4-2.7 9.7.3.3 6.5-3.1 13.7-7.5 7.1-4.5 14.4-8.9 16-9.9 3.9-2.3 20.4-12.4 20.9-12.8 1.1-1-2.2-2-21.6-6.5-28-6.6-35.4-8.2-36-7.6-.3.3 1.7 3.4 4.3 6.7 7.5 9.5 7.8 10 6.8 11-.5.5-4.3 1.6-8.4 2.5-31.8 6.7-58.8 21.6-78.6 43.3l-5 5.6-21.5 6.8c-20.4 6.5-25 8-40.6 12.9-9.6 3-31.9 9-37.8 10.1-2.7.5-7 1.4-9.5 1.9s-11 1.6-19 2.5c-30.6 3.2-45.6-3-45.4-18.8.2-13.2 21.7-25.6 64.9-37.3 10.9-3 37.8-7.6 61-10.6 34.9-4.4 73.3-14.6 92.8-24.6 10.3-5.3 21.9-15.6 25.9-22.9 12-22.2 4.8-46.7-18.3-62.5-18-12.2-50.2-22-79.7-24.2l-6.4-.5-1.4 3.6zM695 546.9c1.9.6 4.4 1.8 5.4 2.6 1.8 1.3 1.8 1.8.6 5.6-2.8 8.3-25.3 28.4-37.7 33.5-2.1.9-5.1 2.2-6.8 2.8-13.1 5.5-29.2 6.9-40.7 3.6-5.5-1.6-11.9-6.9-14.6-12.2-1.9-3.7-2.4-6.2-2.4-12 .1-11 .8-12.3 8.9-14.7 15.7-4.6 33.3-8.5 46.8-10.5 6.1-.8 37.1.1 40.5 1.3z"/></svg>
