<?xml version="1.0" encoding="UTF-8" standalone="no" ?>
<!DOCTYPE svg PUBLIC "-//W3C//DTD SVG 1.1//EN" "http://www.w3.org/Graphics/SVG/1.1/DTD/svg11.dtd">
<svg xmlns="http://www.w3.org/2000/svg" xmlns:xlink="http://www.w3.org/1999/xlink" version="1.1" width="640" height="55" viewBox="0 0 640 55" xml:space="preserve">
<desc>Created with Fabric.js 3.6.6</desc>
<defs>
</defs>
<rect x="0" y="0" width="100%" height="100%" fill="rgba(130, 59, 59, 0)"></rect>
<g transform="matrix(2.92 0 0 2.92 2895.1 547.98)"  >
<line style="stroke: rgb(0,0,0); stroke-width: 13; stroke-dasharray: none; stroke-linecap: butt; stroke-dashoffset: 0; stroke-linejoin: miter; stroke-miterlimit: 4; fill: rgb(0,0,0); fill-rule: nonzero; opacity: 1;"  x1="-1167.5" y1="0" x2="1167.5" y2="0" />
</g>
<g transform="matrix(-1.19 0 0 1.19 187.63 24.89)"  >
<g style=""   >
		<g transform="matrix(1.33 0 0 1.33 -7.26 11.08)" clip-path="url(#CLIPPATH_4)"  >
<clipPath id="CLIPPATH_4" >
	<path transform="matrix(1 0 0 1 -0.06 -0.31) translate(-9.5, -23.02)" d="M 7 17 L 12 17 L 12 29.03125 L 7 29.03125 Z M 7 17" stroke-linecap="round" />
</clipPath>
<path style="stroke: none; stroke-width: 1; stroke-dasharray: none; stroke-linecap: butt; stroke-dashoffset: 0; stroke-linejoin: miter; stroke-miterlimit: 4; fill: rgb(110,110,124); fill-rule: nonzero; opacity: 1;"  transform=" translate(-9.56, -23.33)" d="M 10.847656 26.019531 C 10.734375 26.078125 10.6875 26.21875 10.742188 26.332031 C 10.746094 26.335938 10.824219 26.5 10.886719 26.726562 C 10.410156 26.460938 9.628906 26.046875 9.113281 25.839844 C 9.164062 25.289062 9.328125 23.613281 9.328125 23.214844 C 9.328125 22.925781 9.195312 22.667969 9.070312 22.414062 C 8.964844 22.199219 8.863281 22 8.863281 21.820312 C 8.863281 21.691406 8.914062 21.410156 8.96875 21.113281 C 9.097656 20.390625 9.257812 19.492188 9.082031 18.964844 C 8.835938 18.226562 8.351562 17.734375 8.332031 17.714844 C 8.242188 17.625 8.09375 17.625 8.003906 17.714844 C 7.914062 17.804688 7.914062 17.953125 8.003906 18.042969 C 8.007812 18.046875 8.433594 18.480469 8.644531 19.113281 C 8.78125 19.523438 8.625 20.394531 8.511719 21.03125 C 8.449219 21.378906 8.398438 21.648438 8.398438 21.820312 C 8.398438 22.109375 8.53125 22.371094 8.65625 22.621094 C 8.761719 22.835938 8.863281 23.035156 8.863281 23.214844 C 8.863281 23.570312 8.71875 25.101562 8.65625 25.71875 C 8.25 25.664062 7.886719 25.769531 7.867188 25.773438 C 7.746094 25.8125 7.675781 25.941406 7.714844 26.0625 C 7.75 26.1875 7.878906 26.257812 8.003906 26.21875 C 8.007812 26.21875 8.429688 26.097656 8.789062 26.21875 C 9.347656 26.402344 10.5625 27.074219 10.945312 27.289062 C 10.910156 27.785156 10.726562 28.722656 10.722656 28.734375 C 10.699219 28.859375 10.78125 28.980469 10.90625 29.007812 C 10.921875 29.011719 10.9375 29.011719 10.949219 29.011719 C 11.058594 29.011719 11.15625 28.9375 11.179688 28.824219 C 11.1875 28.777344 11.414062 27.636719 11.414062 27.15625 C 11.414062 26.644531 11.167969 26.144531 11.15625 26.125 C 11.101562 26.011719 10.960938 25.964844 10.847656 26.019531 Z M 10.847656 26.019531" stroke-linecap="round" />
</g>
		<g transform="matrix(1.33 0 0 1.33 -4.01 16.82)" clip-path="url(#CLIPPATH_5)"  >
<clipPath id="CLIPPATH_5" >
	<path transform="matrix(1 0 0 1 0.01 -0.1) translate(-12, -27.52)" d="M 11 26 L 13 26 L 13 29.03125 L 11 29.03125 Z M 11 26" stroke-linecap="round" />
</clipPath>
<path style="stroke: none; stroke-width: 1; stroke-dasharray: none; stroke-linecap: butt; stroke-dashoffset: 0; stroke-linejoin: miter; stroke-miterlimit: 4; fill: rgb(110,110,124); fill-rule: nonzero; opacity: 1;"  transform=" translate(-11.99, -27.62)" d="M 12.105469 26.40625 C 12.074219 26.28125 11.949219 26.207031 11.824219 26.234375 C 11.699219 26.265625 11.625 26.390625 11.652344 26.515625 L 11.808594 27.164062 C 11.878906 27.46875 11.898438 27.816406 11.859375 28.148438 L 11.785156 28.753906 C 11.769531 28.878906 11.863281 28.996094 11.988281 29.011719 C 12 29.011719 12.007812 29.011719 12.015625 29.011719 C 12.132812 29.011719 12.234375 28.925781 12.246094 28.808594 L 12.320312 28.203125 C 12.363281 27.816406 12.34375 27.410156 12.257812 27.054688 Z M 12.105469 26.40625" stroke-linecap="round" />
</g>
		<g transform="matrix(1.33 0 0 1.33 0.12 -0.7)" clip-path="url(#CLIPPATH_6)"  >
<clipPath id="CLIPPATH_6" >
	<path transform="matrix(1 0 0 1 -0.02 0) translate(-15.09, -14.52)" d="M 4.203125 0 L 25.976562 0 L 25.976562 29.03125 L 4.203125 29.03125 Z M 4.203125 0" stroke-linecap="round" />
</clipPath>
<path style="stroke: none; stroke-width: 1; stroke-dasharray: none; stroke-linecap: butt; stroke-dashoffset: 0; stroke-linejoin: miter; stroke-miterlimit: 4; fill: rgb(110,110,124); fill-rule: nonzero; opacity: 1;"  transform=" translate(-15.11, -14.52)" d="M 24.359375 18.34375 L 22.269531 18.34375 C 22.144531 17.769531 21.71875 16.003906 21.109375 15.1875 C 20.519531 14.40625 18.90625 13.648438 18.261719 13.371094 C 18.945312 12.351562 19.996094 10.210938 19.996094 8.601562 C 19.996094 7.949219 19.691406 7.273438 19.3125 6.683594 C 19.359375 6.375 19.464844 5.371094 19.050781 4.339844 C 18.566406 3.125 15.941406 0.0195312 14.199219 0.0195312 C 12.453125 0.0195312 9.585938 2.695312 8.878906 4.578125 C 8.421875 5.792969 8.71875 6.699219 8.84375 6.988281 C 8.476562 7.816406 8.167969 8.746094 8.167969 9.53125 C 8.167969 10.496094 9.433594 12.605469 9.894531 13.34375 C 9.304688 13.546875 7.976562 14.128906 7.050781 15.425781 C 5.878906 17.0625 4.207031 25.476562 4.460938 26.738281 C 4.707031 27.964844 5.886719 28.921875 5.933594 28.960938 C 5.976562 28.996094 6.027344 29.011719 6.078125 29.011719 C 6.148438 29.011719 6.214844 28.980469 6.261719 28.925781 C 6.339844 28.824219 6.324219 28.679688 6.226562 28.597656 C 6.214844 28.589844 5.128906 27.707031 4.917969 26.648438 C 4.6875 25.507812 6.316406 17.253906 7.429688 15.695312 C 8.265625 14.523438 9.496094 13.980469 10.039062 13.785156 C 10.070312 14.199219 10.179688 14.933594 10.527344 15.457031 C 11.035156 16.21875 12.011719 16.46875 12.054688 16.480469 C 12.074219 16.484375 12.09375 16.488281 12.109375 16.488281 C 12.214844 16.488281 12.308594 16.417969 12.335938 16.3125 C 12.367188 16.1875 12.289062 16.0625 12.167969 16.03125 C 12.15625 16.027344 11.320312 15.8125 10.910156 15.199219 C 10.722656 14.914062 10.617188 14.535156 10.558594 14.203125 C 11.078125 14.75 11.699219 15.25 11.734375 15.277344 C 11.777344 15.3125 11.828125 15.328125 11.878906 15.328125 C 11.945312 15.328125 12.011719 15.296875 12.058594 15.242188 C 12.140625 15.140625 12.125 14.996094 12.023438 14.914062 C 12.011719 14.90625 10.886719 14.003906 10.449219 13.34375 C 9.816406 12.394531 8.632812 10.300781 8.632812 9.53125 C 8.632812 7.765625 10.429688 5.046875 10.449219 5.019531 C 10.519531 4.914062 10.488281 4.769531 10.382812 4.699219 C 10.277344 4.628906 10.132812 4.65625 10.0625 4.761719 C 10.023438 4.820312 9.585938 5.480469 9.140625 6.363281 C 9.074219 5.988281 9.054688 5.425781 9.3125 4.742188 C 10.011719 2.871094 12.753906 0.484375 14.199219 0.484375 C 15.675781 0.484375 18.171875 3.386719 18.621094 4.511719 C 18.855469 5.097656 18.898438 5.679688 18.890625 6.097656 C 18.378906 5.445312 17.875 4.988281 17.832031 4.949219 C 17.734375 4.863281 17.589844 4.875 17.503906 4.96875 C 17.417969 5.066406 17.425781 5.210938 17.523438 5.296875 C 17.542969 5.3125 19.53125 7.101562 19.53125 8.601562 C 19.53125 10.097656 18.460938 12.347656 17.722656 13.332031 C 16.980469 14.320312 15.410156 15.839844 14.820312 16.035156 C 14.660156 16.089844 14.488281 16.097656 14.3125 16.082031 C 14.34375 16.023438 14.371094 15.960938 14.40625 15.894531 C 14.53125 15.644531 14.660156 15.382812 14.660156 15.097656 C 14.660156 14.742188 14.539062 14.277344 14.46875 14.03125 C 15.226562 13.511719 18.605469 11.085938 18.605469 9.296875 C 18.605469 6.1875 15.832031 5.355469 14.195312 5.355469 C 13.835938 5.355469 12.578125 5.410156 11.464844 6.117188 C 10.367188 6.808594 9.789062 7.910156 9.789062 9.296875 C 9.789062 11.15625 13.4375 13.699219 14 14.082031 C 14.058594 14.269531 14.195312 14.757812 14.195312 15.097656 C 14.195312 15.273438 14.097656 15.476562 13.988281 15.6875 C 13.941406 15.789062 13.890625 15.890625 13.847656 15.992188 C 13.578125 15.914062 13.375 15.816406 13.371094 15.816406 C 13.257812 15.757812 13.117188 15.804688 13.0625 15.921875 C 13.003906 16.035156 13.050781 16.175781 13.164062 16.230469 C 13.183594 16.242188 13.417969 16.355469 13.738281 16.445312 C 13.738281 16.457031 13.734375 16.472656 13.734375 16.488281 C 13.734375 16.847656 13.859375 17.691406 13.933594 18.164062 C 13.953125 18.296875 13.964844 18.433594 13.964844 18.566406 L 13.964844 28.78125 C 13.964844 28.90625 14.070312 29.011719 14.195312 29.011719 C 14.324219 29.011719 14.429688 28.90625 14.429688 28.78125 L 14.429688 26.542969 C 14.683594 26.777344 15.023438 26.925781 15.398438 26.925781 L 16.949219 26.925781 L 17.0625 27.328125 C 17.167969 27.726562 17.527344 27.992188 17.925781 27.992188 C 17.976562 27.992188 18.027344 27.988281 18.078125 27.980469 L 18.757812 27.867188 L 18.828125 27.941406 C 19.019531 28.128906 19.273438 28.234375 19.535156 28.234375 C 19.617188 28.234375 19.695312 28.222656 19.777344 28.203125 L 20.191406 28.101562 C 20.203125 28.105469 20.210938 28.113281 20.222656 28.117188 L 20.222656 28.78125 C 20.222656 28.90625 20.328125 29.011719 20.457031 29.011719 C 20.582031 29.011719 20.6875 28.90625 20.6875 28.78125 L 20.6875 28.238281 C 20.761719 28.238281 20.835938 28.230469 20.910156 28.210938 L 21.550781 28.039062 C 21.644531 28.0625 21.742188 28.074219 21.839844 28.074219 C 22.042969 28.074219 22.25 28.027344 22.441406 27.929688 L 24.464844 26.921875 C 25.207031 26.867188 25.792969 26.246094 25.792969 25.492188 L 25.792969 19.777344 C 25.792969 18.988281 25.152344 18.34375 24.359375 18.34375 Z M 10.253906 9.296875 C 10.253906 8.058594 10.746094 7.121094 11.710938 6.507812 C 12.722656 5.867188 13.867188 5.820312 14.195312 5.820312 C 14.195312 5.820312 14.199219 5.820312 14.199219 5.820312 C 15.664062 5.820312 18.140625 6.550781 18.140625 9.296875 C 18.140625 10.675781 15.410156 12.832031 14.199219 13.65625 C 12.988281 12.832031 10.253906 10.675781 10.253906 9.296875 Z M 14.457031 16.550781 C 14.628906 16.550781 14.804688 16.53125 14.96875 16.476562 C 15.585938 16.269531 16.703125 15.210938 17.484375 14.34375 C 17.324219 14.914062 17.042969 15.632812 16.585938 16.089844 C 15.742188 16.933594 14.902344 16.953125 14.894531 16.953125 C 14.765625 16.953125 14.660156 17.054688 14.660156 17.183594 C 14.660156 17.3125 14.765625 17.414062 14.894531 17.414062 C 14.933594 17.414062 15.929688 17.402344 16.914062 16.417969 C 17.664062 15.667969 17.980469 14.382812 18.089844 13.800781 C 18.707031 14.070312 20.222656 14.78125 20.738281 15.46875 C 21.257812 16.160156 21.648438 17.710938 21.792969 18.34375 L 20.085938 18.34375 L 20.449219 17.257812 C 20.488281 17.136719 20.421875 17.003906 20.300781 16.964844 C 20.179688 16.921875 20.046875 16.988281 20.007812 17.109375 L 19.597656 18.34375 L 15.398438 18.34375 C 15.023438 18.34375 14.683594 18.488281 14.429688 18.722656 L 14.429688 18.566406 C 14.429688 18.410156 14.417969 18.25 14.390625 18.09375 C 14.335938 17.738281 14.210938 16.902344 14.199219 16.535156 C 14.285156 16.546875 14.371094 16.550781 14.457031 16.550781 Z M 18.003906 27.523438 C 17.78125 27.5625 17.570312 27.425781 17.507812 27.207031 L 17.101562 25.707031 C 17.082031 25.644531 17.089844 25.578125 17.125 25.519531 C 17.15625 25.464844 17.210938 25.425781 17.273438 25.410156 C 17.402344 25.378906 17.535156 25.457031 17.566406 25.585938 L 17.824219 26.609375 C 17.894531 26.894531 18.039062 27.152344 18.25 27.359375 L 18.355469 27.464844 Z M 19.15625 27.613281 L 18.574219 27.03125 C 18.429688 26.882812 18.324219 26.699219 18.273438 26.496094 L 18.015625 25.472656 C 17.984375 25.34375 18.0625 25.210938 18.203125 25.175781 C 18.332031 25.144531 18.460938 25.222656 18.492188 25.351562 L 18.75 26.378906 C 18.820312 26.660156 18.96875 26.921875 19.175781 27.128906 L 19.773438 27.726562 L 19.664062 27.753906 C 19.484375 27.800781 19.289062 27.746094 19.15625 27.613281 Z M 20.792969 27.761719 C 20.632812 27.800781 20.457031 27.753906 20.339844 27.636719 L 19.503906 26.800781 C 19.355469 26.652344 19.25 26.46875 19.199219 26.265625 L 18.945312 25.238281 C 18.910156 25.109375 18.992188 24.980469 19.121094 24.949219 L 19.164062 24.9375 C 19.285156 24.90625 19.410156 24.976562 19.449219 25.09375 L 19.65625 25.707031 L 19.867188 26.34375 C 19.96875 26.652344 20.148438 26.941406 20.378906 27.171875 L 20.886719 27.679688 C 20.902344 27.695312 20.921875 27.707031 20.941406 27.722656 Z M 22.234375 27.515625 C 21.894531 27.6875 21.484375 27.621094 21.214844 27.351562 L 20.707031 26.84375 C 20.527344 26.664062 20.386719 26.4375 20.304688 26.195312 L 20.214844 25.925781 C 20.214844 25.925781 20.214844 25.925781 20.214844 25.921875 L 20.136719 25.683594 L 19.96875 25.179688 C 19.933594 25.078125 19.945312 24.96875 20 24.875 C 20.054688 24.785156 20.140625 24.71875 20.246094 24.699219 C 20.269531 24.695312 20.296875 24.691406 20.320312 24.691406 C 20.46875 24.691406 20.605469 24.78125 20.664062 24.925781 L 21.199219 26.269531 C 21.359375 26.667969 21.738281 26.925781 22.167969 26.925781 L 23.421875 26.925781 Z M 25.332031 25.492188 C 25.332031 26.027344 24.894531 26.460938 24.359375 26.460938 L 22.167969 26.460938 C 21.929688 26.460938 21.71875 26.320312 21.632812 26.097656 L 21.09375 24.753906 C 20.945312 24.378906 20.550781 24.164062 20.15625 24.246094 C 19.9375 24.289062 19.75 24.417969 19.628906 24.601562 C 19.464844 24.484375 19.257812 24.433594 19.050781 24.488281 L 19.007812 24.496094 C 18.828125 24.542969 18.6875 24.652344 18.59375 24.792969 C 18.441406 24.714844 18.261719 24.683594 18.078125 24.730469 C 17.902344 24.773438 17.757812 24.882812 17.664062 25.023438 C 17.511719 24.941406 17.332031 24.914062 17.160156 24.957031 C 16.976562 25.003906 16.820312 25.121094 16.722656 25.285156 C 16.628906 25.453125 16.601562 25.644531 16.652344 25.828125 L 16.824219 26.460938 L 15.398438 26.460938 C 14.863281 26.460938 14.429688 26.027344 14.429688 25.492188 L 14.429688 19.777344 C 14.429688 19.242188 14.863281 18.808594 15.398438 18.808594 L 19.761719 18.808594 C 19.765625 18.808594 19.765625 18.808594 19.765625 18.808594 L 24.359375 18.808594 C 24.894531 18.808594 25.328125 19.242188 25.328125 19.777344 L 25.328125 25.492188 Z M 25.332031 25.492188" stroke-linecap="round" />
</g>
		<g transform="matrix(1.33 0 0 1.33 -3.25 -8.21)"  >
<path style="stroke: none; stroke-width: 1; stroke-dasharray: none; stroke-linecap: butt; stroke-dashoffset: 0; stroke-linejoin: miter; stroke-miterlimit: 4; fill: rgb(110,110,124); fill-rule: nonzero; opacity: 1;"  transform=" translate(-12.56, -8.84)" d="M 14.40625 8.84375 C 14.40625 8.738281 14.335938 8.648438 14.230469 8.621094 L 13.617188 8.464844 C 13.285156 8.382812 13.027344 8.121094 12.941406 7.789062 L 12.789062 7.175781 C 12.761719 7.074219 12.667969 7 12.5625 7 C 12.457031 7 12.363281 7.074219 12.339844 7.175781 L 12.183594 7.789062 C 12.097656 8.121094 11.839844 8.382812 11.507812 8.464844 L 10.894531 8.621094 C 10.789062 8.648438 10.71875 8.738281 10.71875 8.84375 C 10.71875 8.953125 10.789062 9.042969 10.894531 9.070312 L 11.507812 9.226562 C 11.839844 9.308594 12.097656 9.566406 12.183594 9.902344 L 12.335938 10.515625 C 12.363281 10.617188 12.457031 10.6875 12.5625 10.6875 C 12.667969 10.6875 12.761719 10.617188 12.789062 10.515625 L 12.941406 9.902344 C 13.027344 9.570312 13.285156 9.308594 13.617188 9.226562 L 14.230469 9.070312 C 14.335938 9.042969 14.40625 8.953125 14.40625 8.84375 Z M 12.5625 9.582031 C 12.421875 9.25 12.15625 8.988281 11.828125 8.84375 C 12.15625 8.703125 12.421875 8.441406 12.5625 8.109375 C 12.703125 8.441406 12.96875 8.703125 13.296875 8.84375 C 12.96875 8.988281 12.703125 9.25 12.5625 9.582031 Z M 12.5625 9.582031" stroke-linecap="round" />
</g>
</g>
</g>
<g transform="matrix(2.8 0 0 1.37 316.8 47.31)"  >
<line style="stroke: rgb(110,110,126); stroke-width: 1; stroke-dasharray: none; stroke-linecap: butt; stroke-dashoffset: 0; stroke-linejoin: miter; stroke-miterlimit: 4; fill: rgb(0,0,0); fill-rule: nonzero; opacity: 1;"  x1="-118.5" y1="0" x2="118.5" y2="0" />
</g>
</svg>